<svg width="12" height="8" viewBox="0 0 12 8" fill="none" xmlns="http://www.w3.org/2000/svg">
<path d="M5.26744 6.96538L0.209302 1.90724C0.139535 1.83747 0.0872093 1.76189 0.0523256 1.68049C0.0174419 1.5991 0 1.51189 0 1.41887C0 1.23282 0.0639535 1.07003 0.19186 0.930494C0.319767 0.790959 0.488372 0.721191 0.697674 0.721191H11.3023C11.5116 0.721191 11.6802 0.790959 11.8081 0.930494C11.936 1.07003 12 1.23282 12 1.41887C12 1.46538 11.9302 1.62817 11.7907 1.90724L6.73256 6.96538C6.61628 7.08166 6.5 7.16305 6.38372 7.20956C6.26744 7.25608 6.13953 7.27933 6 7.27933C5.86047 7.27933 5.73256 7.25608 5.61628 7.20956C5.5 7.16305 5.38372 7.08166 5.26744 6.96538Z" fill="#CCCCCC"/>
</svg>
