<?xml version="1.0" standalone="no"?>
<!DOCTYPE svg PUBLIC "-//W3C//DTD SVG 20010904//EN"
 "http://www.w3.org/TR/2001/REC-SVG-20010904/DTD/svg10.dtd">
<svg version="1.0" xmlns="http://www.w3.org/2000/svg"
 width="514.000000pt" height="514.000000pt" viewBox="0 0 514.000000 514.000000"
 preserveAspectRatio="xMidYMid meet">
<metadata>
Created by potrace 1.14, written by Peter Selinger 2001-2017
</metadata>
<g transform="translate(0.000000,514.000000) scale(0.100000,-0.100000)"
fill="#000000" stroke="none">
<path d="M2490 5097 c-21 -7 -43 -26 -56 -47 -26 -41 -52 -69 -83 -90 -29 -20
-77 -96 -86 -137 -4 -22 -13 -33 -30 -37 -34 -9 -126 -102 -133 -136 -2 -8 -7
-17 -10 -20 -8 -6 -9 -10 -24 -90 -19 -99 -12 -179 20 -236 6 -11 1 -23 -19
-43 -33 -33 -31 -72 6 -136 14 -25 22 -52 20 -70 -3 -30 -12 -70 -15 -70 -2 0
-9 -36 -13 -68 -2 -15 -6 -30 -10 -33 -8 -9 12 -60 31 -77 27 -24 74 -29 106
-12 28 15 31 14 55 -8 14 -14 38 -32 53 -42 27 -17 27 -18 12 -53 -14 -34 -13
-38 2 -49 10 -7 29 -13 43 -14 14 0 35 -3 46 -6 30 -9 303 -8 354 1 57 10 91
23 91 36 0 5 -4 10 -8 10 -5 0 -9 6 -9 13 0 6 -4 19 -7 28 -5 11 2 22 21 34
15 10 35 26 43 35 20 21 45 31 56 20 15 -15 63 -19 95 -8 16 6 28 13 25 15 -3
3 1 11 8 19 18 17 13 104 -9 163 -20 54 -16 93 14 151 23 44 30 97 14 109 -26
19 -35 41 -23 56 7 8 10 15 7 15 -3 0 0 15 8 33 19 47 12 183 -14 250 -6 15
-7 27 -3 27 4 0 2 4 -3 8 -6 4 -17 20 -25 36 -19 38 -76 92 -117 111 -18 9
-33 22 -33 29 0 22 -40 106 -50 106 -6 0 -10 6 -10 13 0 7 -18 23 -40 37 -22
13 -45 37 -51 52 -13 32 -49 71 -70 77 -38 10 -148 9 -179 -2z"/>
<path d="M2869 3502 c-13 -9 -29 -21 -36 -27 -6 -5 -23 -19 -37 -30 -14 -11
-50 -41 -78 -67 -29 -26 -56 -48 -60 -48 -4 0 -20 -12 -35 -26 -15 -14 -36
-33 -46 -42 -11 -9 -23 -16 -28 -14 -5 1 -9 -4 -9 -12 0 -8 -9 -18 -21 -21
-27 -9 -36 -35 -35 -111 1 -35 -3 -64 -7 -64 -4 0 -5 -6 -1 -12 12 -19 13 -51
2 -70 -6 -12 -5 -18 2 -18 6 0 8 -5 4 -12 -12 -18 -11 -88 1 -88 7 0 7 -3 0
-8 -6 -4 -11 -93 -12 -222 -1 -118 -3 -215 -3 -215 -1 0 -3 -67 -4 -148 -2
-81 -6 -150 -9 -153 -3 -3 -12 -6 -20 -8 -8 -1 -22 -8 -31 -15 -9 -7 -16 -10
-16 -6 0 4 -7 2 -15 -5 -12 -10 -151 -81 -165 -85 -3 0 -54 -25 -115 -55 -60
-30 -112 -53 -114 -51 -2 1 -7 -1 -10 -6 -3 -4 -44 -26 -91 -48 -47 -22 -92
-45 -100 -51 -8 -7 -27 -15 -42 -19 -15 -4 -32 -13 -39 -21 -6 -8 -17 -14 -23
-14 -6 0 -67 -28 -135 -61 -120 -59 -135 -63 -142 -29 0 3 -2 12 -4 20 -2 8
-6 24 -9 35 -2 11 -14 58 -27 105 -12 47 -22 90 -22 97 0 6 -6 9 -13 6 -8 -3
-13 -8 -12 -11 3 -13 -14 -77 -24 -89 -6 -7 -8 -13 -5 -13 4 0 0 -18 -8 -39
-7 -22 -11 -42 -8 -45 4 -3 0 -6 -7 -6 -7 0 -11 -3 -7 -6 3 -3 1 -18 -5 -33
-5 -14 -12 -34 -14 -43 -10 -44 -14 -58 -42 -143 -17 -51 -26 -94 -21 -99 5
-6 24 -11 42 -11 18 -1 38 -5 45 -9 6 -3 23 -6 39 -5 15 1 42 -1 58 -4 17 -3
55 -9 85 -12 91 -11 103 -13 140 -19 29 -5 52 2 135 45 88 45 212 111 240 127
6 4 17 7 25 9 8 1 16 7 18 12 2 6 12 11 22 11 10 0 20 3 22 8 2 4 35 23 73 42
39 19 78 41 88 49 9 8 17 11 17 7 0 -3 17 4 38 16 20 13 55 32 77 43 22 11 43
24 46 28 3 5 8 8 10 6 2 -1 24 8 49 21 121 62 216 113 228 122 6 6 12 7 12 2
0 -5 4 -4 8 1 4 6 16 15 26 21 21 11 23 17 30 119 3 39 5 70 6 70 1 0 3 27 6
60 2 33 6 83 9 110 2 28 6 77 9 110 3 33 8 89 11 125 3 36 7 86 9 112 2 25 7
51 10 57 4 6 2 11 -4 11 -6 0 -8 5 -5 10 4 6 8 32 11 58 2 26 6 74 9 107 12
135 17 202 18 237 1 44 13 51 53 33 16 -7 67 -27 114 -45 84 -32 109 -41 153
-59 12 -5 39 -16 61 -23 48 -16 53 -29 71 -173 2 -16 4 -30 5 -30 2 0 9 -33
16 -80 9 -57 12 -75 20 -120 3 -22 7 -46 7 -52 0 -7 3 -13 6 -13 3 0 7 -18 8
-40 1 -22 5 -52 9 -67 3 -15 8 -39 9 -53 2 -14 4 -27 5 -30 1 -3 3 -9 5 -15 1
-5 3 -12 4 -15 3 -6 13 -97 14 -122 1 -10 4 -18 7 -18 9 0 11 -48 2 -54 -4 -2
-26 -7 -50 -10 -23 -3 -59 -8 -80 -11 -21 -3 -49 -8 -62 -10 -14 -3 -42 -7
-63 -10 -34 -4 -67 -24 -67 -39 0 -3 -8 -14 -17 -24 -36 -37 -73 -82 -68 -82
3 0 -3 -8 -12 -18 -58 -60 -89 -112 -65 -112 4 0 13 -12 20 -27 6 -16 25 -50
42 -78 17 -27 33 -58 36 -67 4 -10 10 -18 15 -18 5 0 9 -5 9 -10 0 -6 26 -55
58 -108 31 -53 66 -114 77 -134 23 -45 31 -48 30 -10 -1 15 1 32 4 37 3 6 6
21 7 35 1 14 5 52 9 85 4 33 8 72 8 87 2 23 6 27 27 23 14 -2 49 -7 78 -10 29
-3 74 -9 100 -14 26 -5 54 -9 62 -9 8 0 28 -3 44 -7 15 -3 49 -8 75 -10 25 -2
46 -5 46 -6 0 -1 9 -3 20 -5 189 -29 192 -29 200 -2 4 12 20 44 36 71 16 26
25 47 21 47 -4 0 -2 4 3 8 12 9 59 104 57 115 -1 4 2 7 7 7 9 0 37 68 34 81
-2 6 -33 121 -61 226 -11 40 -17 75 -14 78 3 3 1 5 -5 5 -6 0 -13 15 -16 33
-3 17 -13 59 -22 92 -10 33 -19 67 -20 75 -2 8 -4 15 -5 15 -1 0 -3 11 -6 25
-2 14 -7 32 -11 40 -7 18 -9 26 -16 62 -3 15 -8 32 -12 38 -3 5 -8 18 -10 27
-6 31 -23 95 -45 173 -12 41 -23 84 -25 95 -2 11 -4 21 -5 23 -2 1 -3 5 -5 10
-1 4 -4 14 -8 22 -4 12 -25 91 -42 160 -2 8 -4 15 -5 15 -2 0 -10 36 -12 58
-1 9 -6 17 -10 17 -4 0 -7 3 -7 8 4 15 -14 93 -22 98 -4 2 -6 11 -3 19 7 16
-31 37 -96 55 -25 7 -45 11 -45 10 0 -1 -13 4 -30 10 -35 14 -212 70 -236 75
-9 2 -39 11 -65 20 -27 9 -56 18 -64 20 -8 2 -16 4 -17 5 -2 2 -6 3 -10 4 -10
2 -124 36 -138 40 -5 2 -14 4 -20 6 -5 1 -17 6 -26 11 -10 5 -24 2 -40 -9z"/>
<path d="M2045 3439 c-44 -17 -102 -39 -130 -49 -27 -10 -81 -30 -120 -45 -38
-15 -77 -28 -87 -30 -9 -2 -30 -11 -47 -19 -17 -9 -31 -14 -31 -12 0 3 -30 -8
-67 -23 -38 -15 -71 -28 -76 -29 -24 -2 -96 -36 -92 -43 3 -4 1 -10 -4 -14 -5
-3 -9 -13 -9 -23 1 -9 -6 -41 -15 -69 -9 -29 -13 -53 -10 -53 3 0 0 -7 -7 -15
-7 -8 -10 -15 -7 -15 3 0 1 -15 -4 -32 -11 -34 -16 -56 -23 -86 -2 -9 -9 -35
-14 -57 -6 -22 -13 -51 -16 -65 -3 -14 -10 -45 -17 -70 -6 -25 -12 -52 -14
-60 -2 -8 -8 -29 -14 -47 -5 -17 -7 -34 -3 -37 3 -3 1 -6 -4 -6 -5 0 -10 -8
-11 -17 -2 -31 -15 -88 -23 -103 -4 -8 -6 -23 -5 -32 2 -10 -1 -18 -7 -18 -6
0 -8 -7 -5 -15 4 -8 2 -17 -3 -20 -6 -4 -10 -10 -10 -15 0 -10 8 -18 220 -210
45 -41 105 -96 133 -121 l50 -46 76 47 c42 26 155 96 251 155 96 59 187 116
202 126 15 11 32 19 38 19 5 0 10 3 10 8 0 4 36 27 80 52 44 25 80 47 80 50 0
8 -165 130 -176 130 -10 0 -153 -54 -202 -76 -18 -8 -37 -12 -42 -9 -6 3 -10
2 -10 -4 0 -5 -17 -15 -37 -21 -21 -6 -47 -15 -58 -20 -38 -18 -130 -50 -140
-50 -5 0 -30 18 -55 40 -25 22 -48 40 -53 40 -9 0 -3 103 7 119 4 6 5 14 2 19
-2 4 -1 28 4 52 8 42 17 112 25 185 1 17 6 53 10 80 4 28 9 66 10 85 2 19 4
35 5 35 1 0 3 15 5 34 5 43 10 48 119 106 49 26 111 60 138 76 27 16 51 29 54
29 3 0 19 9 35 21 16 11 29 17 29 12 0 -4 4 -3 8 3 7 10 77 51 201 115 l54 29
-34 14 c-64 27 -82 26 -164 -5z"/>
<path d="M2633 1420 c-13 -5 -23 -7 -23 -5 0 6 -159 -92 -182 -113 -10 -8 -18
-11 -18 -7 0 5 -7 0 -15 -11 -8 -10 -15 -14 -15 -9 0 6 -3 6 -8 0 -4 -6 -66
-50 -139 -98 -91 -61 -130 -93 -126 -103 3 -7 9 -11 14 -8 5 3 9 1 9 -4 0 -4
13 -23 28 -40 16 -18 44 -49 62 -69 18 -21 42 -48 53 -60 12 -14 -57 16 -184
80 -112 55 -206 102 -209 102 -3 0 -16 7 -30 15 -14 8 -34 15 -44 17 -11 2
-24 7 -30 12 -24 19 -111 28 -171 18 -58 -9 -243 -99 -459 -221 -54 -31 -102
-56 -107 -56 -5 0 -9 -3 -9 -7 0 -5 -23 -19 -50 -32 -28 -14 -50 -29 -50 -33
0 -4 -9 -8 -19 -8 -11 0 -21 -4 -23 -8 -2 -5 -28 -23 -58 -40 -90 -53 -93 -55
-137 -102 -42 -45 -91 -126 -85 -143 1 -5 -1 -14 -6 -21 -9 -12 -7 -105 3
-146 3 -14 8 -35 11 -47 2 -12 9 -35 15 -50 6 -16 10 -29 10 -30 -1 -2 -1 -4
0 -5 0 -2 2 -11 4 -20 3 -19 23 -85 32 -108 4 -8 7 -19 7 -25 1 -5 24 -10 51
-9 71 2 347 13 495 21 69 3 149 6 178 7 28 0 52 3 52 6 0 3 21 5 48 6 91 1
206 15 218 27 8 8 -26 16 -106 22 -125 11 -155 14 -197 16 -24 2 -43 7 -43 11
0 5 -5 6 -10 3 -18 -11 -156 24 -175 45 -16 17 -15 19 7 34 31 20 135 56 163
56 12 0 25 3 29 7 3 4 19 8 34 9 15 2 41 5 57 8 37 6 123 14 235 22 47 3 108
8 135 10 28 2 82 6 120 9 39 2 99 7 135 10 36 3 92 7 125 10 33 2 94 7 135 10
41 3 107 8 145 11 81 6 138 11 145 14 3 1 8 2 11 2 8 -1 114 16 149 24 14 3
30 6 36 7 6 2 22 10 35 19 20 13 22 19 13 35 -11 19 -117 65 -191 83 -53 13
-58 31 -5 19 20 -4 38 -8 40 -9 1 0 3 0 5 -1 1 0 11 -2 22 -3 21 -3 116 -19
125 -21 7 -2 93 -19 105 -21 6 -1 12 -3 15 -4 3 -1 12 -3 20 -5 16 -3 94 -23
120 -30 8 -2 34 -10 58 -19 23 -8 46 -16 50 -17 22 -3 71 -30 95 -52 l28 -25
-22 -21 c-21 -20 -34 -25 -51 -22 -5 0 -8 -3 -8 -8 0 -5 -19 -12 -42 -16 -24
-4 -50 -10 -58 -12 -30 -7 -130 -22 -205 -29 -27 -2 -70 -7 -95 -10 -25 -3
-63 -7 -85 -9 -55 -4 -129 -15 -162 -24 -34 -9 -42 -31 -11 -33 22 -1 37 -4
48 -8 3 -1 21 -3 40 -5 19 -2 64 -6 100 -9 36 -3 90 -9 120 -11 30 -3 87 -8
125 -10 39 -3 90 -8 115 -11 42 -5 64 -7 215 -19 33 -2 74 -7 90 -10 17 -3 66
-7 110 -9 44 -3 80 -5 80 -6 0 -3 35 -8 110 -14 117 -9 195 -17 235 -22 19 -3
67 -7 105 -10 39 -3 86 -8 105 -10 35 -4 105 -11 167 -17 30 -3 32 -1 44 42 7
26 13 51 15 56 2 6 5 19 7 30 3 11 13 49 22 85 10 36 18 71 18 78 0 6 4 12 9
12 5 0 6 4 3 10 -3 6 -3 16 2 23 12 19 14 36 15 117 1 58 -4 85 -21 122 -25
51 -80 114 -126 141 -40 24 -175 87 -186 87 -5 0 -9 5 -9 10 0 6 -6 10 -14 10
-7 0 -44 14 -82 32 -38 17 -71 32 -74 33 -3 1 -26 11 -52 23 -67 32 -102 45
-110 44 -3 -1 -12 5 -18 13 -7 8 -18 15 -25 15 -7 0 -32 8 -56 19 -77 32 -83
34 -129 37 -52 3 -107 -17 -167 -62 -40 -30 -41 -33 -26 -54 8 -12 27 -34 42
-50 14 -15 37 -42 51 -60 14 -18 33 -40 43 -49 10 -9 23 -25 28 -36 9 -18 9
-19 -4 -2 -8 9 -19 17 -24 17 -5 0 -18 9 -28 20 -10 11 -22 20 -27 20 -5 0
-20 10 -32 23 -13 12 -68 54 -121 92 -53 39 -110 82 -127 98 -17 15 -34 27
-38 27 -5 0 -22 14 -38 30 -17 17 -33 30 -36 30 -5 0 -33 21 -141 109 -88 70
-227 172 -260 190 -42 22 -76 26 -112 11z m17 -830 c0 -5 -7 -7 -15 -4 -8 4
-15 8 -15 10 0 2 7 4 15 4 8 0 15 -4 15 -10z"/>
</g>
</svg>
