<svg width="14" height="16" viewBox="0 0 14 16" fill="none" xmlns="http://www.w3.org/2000/svg">
<path d="M6.99994 16C6.02732 16 5.1163 15.8152 4.26687 15.4456C3.41745 15.076 2.67826 14.5767 2.0493 13.9478C1.42034 13.3188 0.92106 12.5796 0.551464 11.7302C0.181868 10.8808 -0.00292969 9.96975 -0.00292969 8.99713C-0.00292969 8.77667 0.0716379 8.59187 0.220773 8.44274C0.369908 8.2936 0.554706 8.21903 0.775167 8.21903C0.995627 8.21903 1.18043 8.2936 1.32956 8.44274C1.4787 8.59187 1.55326 8.77667 1.55326 8.99713C1.55326 10.5144 2.08172 11.8015 3.13863 12.8584C4.19555 13.9153 5.48265 14.4438 6.99994 14.4438C8.51723 14.4438 9.80433 13.9153 10.8612 12.8584C11.9182 11.8015 12.4466 10.5144 12.4466 8.99713C12.4466 7.47984 11.9182 6.19274 10.8612 5.13583C9.80433 4.07891 8.51723 3.55045 6.99994 3.55045H6.88322L7.54461 4.21184C7.70023 4.36746 7.77479 4.54901 7.76831 4.7565C7.76183 4.964 7.68726 5.14555 7.54461 5.30117C7.38899 5.45679 7.20419 5.53784 6.99021 5.54433C6.77624 5.55081 6.59144 5.47624 6.43582 5.32062L4.43222 3.31703C4.2766 3.16141 4.19879 2.97985 4.19879 2.77236C4.19879 2.56487 4.2766 2.38331 4.43222 2.22769L6.43582 0.224092C6.59144 0.0684725 6.77624 -0.00609509 6.99021 0.000389048C7.20419 0.00687319 7.38899 0.0879249 7.54461 0.243544C7.68726 0.399164 7.76183 0.580719 7.76831 0.788212C7.77479 0.995704 7.70023 1.17726 7.54461 1.33288L6.88322 1.99426H6.99994C7.97256 1.99426 8.88358 2.17906 9.733 2.54866C10.5824 2.91825 11.3216 3.41753 11.9506 4.04649C12.5795 4.67545 13.0788 5.41464 13.4484 6.26407C13.818 7.11349 14.0028 8.02451 14.0028 8.99713C14.0028 9.96975 13.818 10.8808 13.4484 11.7302C13.0788 12.5796 12.5795 13.3188 11.9506 13.9478C11.3216 14.5767 10.5824 15.076 9.733 15.4456C8.88358 15.8152 7.97256 16 6.99994 16Z" fill="#CCCCCC"/>
</svg>
