<svg width="16" height="16" viewBox="0 0 16 16" fill="none" xmlns="http://www.w3.org/2000/svg">
<path d="M3.2001 13.4H5.6001V9.4C5.6001 9.17333 5.67676 8.98333 5.8301 8.83C5.98343 8.67667 6.17343 8.6 6.4001 8.6H9.6001C9.82676 8.6 10.0168 8.67667 10.1701 8.83C10.3234 8.98333 10.4001 9.17333 10.4001 9.4V13.4H12.8001V6.2L8.0001 2.6L3.2001 6.2V13.4ZM1.6001 13.4V6.2C1.6001 5.94667 1.65676 5.70667 1.7701 5.48C1.88343 5.25333 2.0401 5.06667 2.2401 4.92L7.0401 1.32C7.3201 1.10667 7.6401 1 8.0001 1C8.3601 1 8.6801 1.10667 8.9601 1.32L13.7601 4.92C13.9601 5.06667 14.1168 5.25333 14.2301 5.48C14.3434 5.70667 14.4001 5.94667 14.4001 6.2V13.4C14.4001 13.84 14.2434 14.2167 13.9301 14.53C13.6168 14.8433 13.2401 15 12.8001 15H9.6001C9.37343 15 9.18343 14.9233 9.0301 14.77C8.87676 14.6167 8.8001 14.4267 8.8001 14.2V10.2H7.2001V14.2C7.2001 14.4267 7.12343 14.6167 6.9701 14.77C6.81676 14.9233 6.62676 15 6.4001 15H3.2001C2.7601 15 2.38343 14.8433 2.0701 14.53C1.75676 14.2167 1.6001 13.84 1.6001 13.4Z" fill="#7A6A56"/>
</svg>
