<svg width="12" height="12" viewBox="0 0 12 12" fill="none" xmlns="http://www.w3.org/2000/svg">
<path d="M0.666667 9.99951C0.477778 9.99951 0.319444 9.93562 0.191667 9.80785C0.0638889 9.68007 0 9.52173 0 9.33285C0 9.14396 0.0638889 8.98562 0.191667 8.85785C0.319444 8.73007 0.477778 8.66618 0.666667 8.66618H11.3333C11.5222 8.66618 11.6806 8.73007 11.8083 8.85785C11.9361 8.98562 12 9.14396 12 9.33285C12 9.52173 11.9361 9.68007 11.8083 9.80785C11.6806 9.93562 11.5222 9.99951 11.3333 9.99951H0.666667ZM0.666667 6.66618C0.477778 6.66618 0.319444 6.60229 0.191667 6.47451C0.0638889 6.34673 0 6.1884 0 5.99951C0 5.81062 0.0638889 5.65229 0.191667 5.52451C0.319444 5.39673 0.477778 5.33285 0.666667 5.33285H11.3333C11.5222 5.33285 11.6806 5.39673 11.8083 5.52451C11.9361 5.65229 12 5.81062 12 5.99951C12 6.1884 11.9361 6.34673 11.8083 6.47451C11.6806 6.60229 11.5222 6.66618 11.3333 6.66618H0.666667ZM0.666667 3.33285C0.477778 3.33285 0.319444 3.26896 0.191667 3.14118C0.0638889 3.0134 0 2.85507 0 2.66618C0 2.47729 0.0638889 2.31896 0.191667 2.19118C0.319444 2.0634 0.477778 1.99951 0.666667 1.99951H11.3333C11.5222 1.99951 11.6806 2.0634 11.8083 2.19118C11.9361 2.31896 12 2.47729 12 2.66618C12 2.85507 11.9361 3.0134 11.8083 3.14118C11.6806 3.26896 11.5222 3.33285 11.3333 3.33285H0.666667Z" fill="#7A6A56"/>
</svg>
