<svg width="16" height="17" viewBox="0 0 16 17" fill="none" xmlns="http://www.w3.org/2000/svg">
<path d="M1.95551 16.5C1.46662 16.5 1.0481 16.3259 0.699957 15.9778C0.351808 15.6296 0.177734 15.2111 0.177734 14.7222V2.27778C0.177734 1.78889 0.351808 1.37037 0.699957 1.02222C1.0481 0.674074 1.46662 0.5 1.95551 0.5H7.28885C7.5407 0.5 7.75181 0.585185 7.92218 0.755556C8.09255 0.925926 8.17773 1.13704 8.17773 1.38889C8.17773 1.64074 8.09255 1.85185 7.92218 2.02222C7.75181 2.19259 7.5407 2.27778 7.28885 2.27778H1.95551V14.7222H7.28885C7.5407 14.7222 7.75181 14.8074 7.92218 14.9778C8.09255 15.1481 8.17773 15.3593 8.17773 15.6111C8.17773 15.863 8.09255 16.0741 7.92218 16.2444C7.75181 16.4148 7.5407 16.5 7.28885 16.5H1.95551ZM12.7777 9.38889H6.39996C6.1481 9.38889 5.93699 9.3037 5.76662 9.13333C5.59625 8.96296 5.51107 8.75185 5.51107 8.5C5.51107 8.24815 5.59625 8.03704 5.76662 7.86667C5.93699 7.6963 6.1481 7.61111 6.39996 7.61111H12.7777L11.1111 5.94444C10.9481 5.78148 10.8666 5.58148 10.8666 5.34444C10.8666 5.10741 10.9481 4.9 11.1111 4.72222C11.274 4.54444 11.4814 4.45185 11.7333 4.44444C11.9851 4.43704 12.2 4.52222 12.3777 4.7L15.5555 7.87778C15.7333 8.05556 15.8222 8.26296 15.8222 8.5C15.8222 8.73704 15.7333 8.94444 15.5555 9.12222L12.3777 12.3C12.2 12.4778 11.9888 12.563 11.7444 12.5556C11.5 12.5481 11.2888 12.4556 11.1111 12.2778C10.9481 12.1 10.8703 11.8889 10.8777 11.6444C10.8851 11.4 10.9703 11.1963 11.1333 11.0333L12.7777 9.38889Z" fill="white"/>
</svg>
