<svg width="16" height="16" viewBox="0 0 16 16" fill="none" xmlns="http://www.w3.org/2000/svg">
<path d="M3.55534 16C3.06645 16 2.64793 15.8259 2.29978 15.4778C1.95163 15.1296 1.77756 14.7111 1.77756 14.2222V2.66667C1.52571 2.66667 1.3146 2.58148 1.14423 2.41111C0.973857 2.24074 0.888672 2.02963 0.888672 1.77778C0.888672 1.52593 0.973857 1.31481 1.14423 1.14444C1.3146 0.974074 1.52571 0.888889 1.77756 0.888889H5.33312C5.33312 0.637037 5.4183 0.425926 5.58867 0.255556C5.75904 0.0851852 5.97015 0 6.22201 0H9.77756C10.0294 0 10.2405 0.0851852 10.4109 0.255556C10.5813 0.425926 10.6664 0.637037 10.6664 0.888889H14.222C14.4739 0.888889 14.685 0.974074 14.8553 1.14444C15.0257 1.31481 15.1109 1.52593 15.1109 1.77778C15.1109 2.02963 15.0257 2.24074 14.8553 2.41111C14.685 2.58148 14.4739 2.66667 14.222 2.66667V14.2222C14.222 14.7111 14.0479 15.1296 13.6998 15.4778C13.3516 15.8259 12.9331 16 12.4442 16H3.55534ZM7.99978 9.68889L9.68867 11.3778C9.85163 11.5407 10.059 11.6222 10.3109 11.6222C10.5627 11.6222 10.7702 11.5407 10.9331 11.3778C11.0961 11.2148 11.1776 11.0074 11.1776 10.7556C11.1776 10.5037 11.0961 10.2963 10.9331 10.1333L9.24423 8.44444L10.9331 6.75556C11.0961 6.59259 11.1776 6.38519 11.1776 6.13333C11.1776 5.88148 11.0961 5.67407 10.9331 5.51111C10.7702 5.34815 10.5627 5.26667 10.3109 5.26667C10.059 5.26667 9.85163 5.34815 9.68867 5.51111L7.99978 7.2L6.31089 5.51111C6.14793 5.34815 5.94052 5.26667 5.68867 5.26667C5.43682 5.26667 5.22941 5.34815 5.06645 5.51111C4.90349 5.67407 4.82201 5.88148 4.82201 6.13333C4.82201 6.38519 4.90349 6.59259 5.06645 6.75556L6.75534 8.44444L5.06645 10.1333C4.90349 10.2963 4.82201 10.5037 4.82201 10.7556C4.82201 11.0074 4.90349 11.2148 5.06645 11.3778C5.22941 11.5407 5.43682 11.6222 5.68867 11.6222C5.94052 11.6222 6.14793 11.5407 6.31089 11.3778L7.99978 9.68889Z" fill="#CCCCCC"/>
</svg>
