<svg width="88" height="88" viewBox="0 0 88 88" fill="none" xmlns="http://www.w3.org/2000/svg">
<mask id="mask0_176_1287" style="mask-type:alpha" maskUnits="userSpaceOnUse" x="0" y="0" width="88" height="88">
<rect width="88" height="88" fill="#D9D9D9"/>
</mask>
<g mask="url(#mask0_176_1287)">
<path d="M38.8654 50.6007L30.982 42.7173C30.3098 42.0451 29.4543 41.709 28.4154 41.709C27.3765 41.709 26.5209 42.0451 25.8487 42.7173C25.1765 43.3895 24.8404 44.2451 24.8404 45.284C24.8404 46.3229 25.1765 47.1784 25.8487 47.8507L36.2987 58.3007C37.032 59.034 37.8876 59.4007 38.8654 59.4007C39.8431 59.4007 40.6987 59.034 41.432 58.3007L62.1487 37.584C62.8209 36.9118 63.157 36.0562 63.157 35.0173C63.157 33.9784 62.8209 33.1229 62.1487 32.4507C61.4765 31.7784 60.6209 31.4423 59.582 31.4423C58.5431 31.4423 57.6876 31.7784 57.0154 32.4507L38.8654 50.6007ZM43.9987 80.6673C38.9265 80.6673 34.1598 79.7048 29.6987 77.7798C25.2376 75.8548 21.357 73.2423 18.057 69.9423C14.757 66.6423 12.1445 62.7618 10.2195 58.3007C8.29453 53.8395 7.33203 49.0729 7.33203 44.0007C7.33203 38.9284 8.29453 34.1618 10.2195 29.7007C12.1445 25.2395 14.757 21.359 18.057 18.059C21.357 14.759 25.2376 12.1465 29.6987 10.2215C34.1598 8.29648 38.9265 7.33398 43.9987 7.33398C49.0709 7.33398 53.8376 8.29648 58.2987 10.2215C62.7598 12.1465 66.6404 14.759 69.9404 18.059C73.2404 21.359 75.8529 25.2395 77.7779 29.7007C79.7029 34.1618 80.6654 38.9284 80.6654 44.0007C80.6654 49.0729 79.7029 53.8395 77.7779 58.3007C75.8529 62.7618 73.2404 66.6423 69.9404 69.9423C66.6404 73.2423 62.7598 75.8548 58.2987 77.7798C53.8376 79.7048 49.0709 80.6673 43.9987 80.6673Z" fill="#C89D65"/>
</g>
</svg>
