<svg width="16" height="16" viewBox="0 0 16 16" fill="none" xmlns="http://www.w3.org/2000/svg">
<path d="M4.49438 3.92503L6.73159 1.02865C6.89139 0.815583 7.08115 0.659112 7.30087 0.559237C7.5206 0.459361 7.75031 0.409424 7.99001 0.409424C8.22971 0.409424 8.45943 0.459361 8.67915 0.559237C8.89888 0.659112 9.08864 0.815583 9.24844 1.02865L11.4856 3.92503L14.8814 5.06361C15.2276 5.17014 15.5006 5.36656 15.7004 5.65287C15.9001 5.93918 16 6.25545 16 6.60168C16 6.76148 15.9767 6.92128 15.9301 7.08108C15.8835 7.24088 15.8069 7.39403 15.7004 7.54051L13.5031 10.6566L13.583 13.9325C13.5963 14.3986 13.4432 14.7914 13.1236 15.111C12.804 15.4306 12.4311 15.5904 12.005 15.5904C11.9784 15.5904 11.8319 15.5705 11.5655 15.5305L7.99001 14.5318L4.41448 15.5305C4.3479 15.5572 4.27466 15.5738 4.19476 15.5805C4.11486 15.5871 4.04161 15.5904 3.97503 15.5904C3.5489 15.5904 3.17603 15.4306 2.85643 15.111C2.53683 14.7914 2.38369 14.3986 2.397 13.9325L2.4769 10.6366L0.299625 7.54051C0.193092 7.39403 0.116521 7.24088 0.0699126 7.08108C0.0233042 6.92128 0 6.76148 0 6.60168C0 6.26877 0.096546 5.95915 0.289638 5.67284C0.48273 5.38654 0.752393 5.18346 1.09863 5.06361L4.49438 3.92503Z" fill="#CCCCCC"/>
</svg>
