<svg width="17" height="16" viewBox="0 0 17 16" fill="none" xmlns="http://www.w3.org/2000/svg">
<path d="M7.42 11L11.32 8.5C11.5067 8.38 11.6 8.21333 11.6 8C11.6 7.78667 11.5067 7.62 11.32 7.5L7.42 5C7.22 4.86667 7.01667 4.85667 6.81 4.97C6.60333 5.08333 6.5 5.26 6.5 5.5V10.5C6.5 10.74 6.60333 10.9167 6.81 11.03C7.01667 11.1433 7.22 11.1333 7.42 11ZM8.5 16C7.39333 16 6.35333 15.79 5.38 15.37C4.40667 14.95 3.56 14.38 2.84 13.66C2.12 12.94 1.55 12.0933 1.13 11.12C0.71 10.1467 0.5 9.10667 0.5 8C0.5 6.89333 0.71 5.85333 1.13 4.88C1.55 3.90667 2.12 3.06 2.84 2.34C3.56 1.62 4.40667 1.05 5.38 0.63C6.35333 0.21 7.39333 0 8.5 0C9.60667 0 10.6467 0.21 11.62 0.63C12.5933 1.05 13.44 1.62 14.16 2.34C14.88 3.06 15.45 3.90667 15.87 4.88C16.29 5.85333 16.5 6.89333 16.5 8C16.5 9.10667 16.29 10.1467 15.87 11.12C15.45 12.0933 14.88 12.94 14.16 13.66C13.44 14.38 12.5933 14.95 11.62 15.37C10.6467 15.79 9.60667 16 8.5 16Z" fill="#CCCCCC"/>
</svg>
