<svg width="286" height="61" viewBox="0 0 286 61" fill="none" xmlns="http://www.w3.org/2000/svg">
<path d="M258.919 14.2195H258.731C258.19 14.1153 257.794 13.8549 257.544 13.4382C257.315 13.0216 257.117 12.532 256.95 11.9695C256.784 11.407 256.554 10.8341 256.263 10.2507C255.971 9.64657 255.492 9.1049 254.825 8.62573C253.513 7.6674 252.596 6.93823 252.075 6.43823L251.263 5.71948C251.888 5.61532 252.617 5.56323 253.45 5.56323C253.992 5.56323 254.815 5.6049 255.919 5.68823C257.044 5.75073 258.346 5.90698 259.825 6.15698C261.304 6.38615 262.315 6.61532 262.856 6.84448C263.086 6.99032 263.2 7.27157 263.2 7.68823C263.2 7.87573 263.148 8.2299 263.044 8.75073C262.94 9.27157 262.648 10.0111 262.169 10.9695C261.69 11.907 261.138 12.7091 260.513 13.3757C259.95 13.9382 259.419 14.2195 258.919 14.2195ZM242.638 38.782H242.45C241.971 38.657 241.606 38.4591 241.356 38.1882C241.106 37.8966 240.877 37.5528 240.669 37.157C240.44 36.6361 240.023 36.0736 239.419 35.4695L238.638 36.032C237.659 36.7403 236.523 37.5945 235.231 38.5945C233.94 39.5736 232.773 40.5424 231.731 41.5007C230.711 42.4382 230.096 43.1882 229.888 43.7507C229.804 43.9591 229.669 44.0632 229.481 44.0632C229.252 44.0632 228.856 43.8341 228.294 43.3757C227.731 42.9174 227.054 42.1778 226.263 41.157C225.471 40.1153 224.877 39.157 224.481 38.282C224.273 37.8653 224.169 37.5424 224.169 37.3132C224.169 37.0841 224.284 36.9486 224.513 36.907C225.492 36.8861 226.513 36.657 227.575 36.2195C228.638 35.782 229.534 35.1257 230.263 34.2507C231.034 33.2924 231.961 31.7611 233.044 29.657C233.731 28.3028 234.231 26.907 234.544 25.4695C234.231 25.7195 233.909 25.9695 233.575 26.2195C232.45 27.0736 231.419 27.9174 230.481 28.7507C229.565 29.5632 229.002 30.2091 228.794 30.6882C228.711 30.8757 228.565 30.9695 228.356 30.9695C227.815 30.9695 226.95 30.4278 225.763 29.3445C225.034 28.6778 224.367 27.9799 223.763 27.2507C222.825 26.1257 222.356 25.3341 222.356 24.8757C222.356 24.6674 222.481 24.5528 222.731 24.532C223.836 24.5111 224.981 24.3132 226.169 23.9382C227.356 23.5424 228.346 22.9486 229.138 22.157C230.013 21.3028 231.044 19.9278 232.231 18.032C233.419 16.1361 234.106 14.1882 234.294 12.1882C234.294 11.6882 234.211 11.1986 234.044 10.7195C233.898 10.2403 233.721 9.76115 233.513 9.28198L232.669 7.68823L233.356 7.84448C234.481 8.09448 235.513 8.21948 236.45 8.21948C237.221 8.21948 237.711 8.12573 237.919 7.93823C238.002 7.87573 238.106 7.84448 238.231 7.84448C238.523 7.84448 238.961 8.09448 239.544 8.59448C240.148 9.07365 240.773 9.70907 241.419 10.5007C242.19 11.4799 242.575 12.1778 242.575 12.5945C242.575 12.9486 242.346 13.3341 241.888 13.7507C241.429 14.1466 240.836 14.5736 240.106 15.032C239.106 15.657 238.242 16.3341 237.513 17.0632L230.2 25.3757L234.825 24.032C234.867 23.7403 234.898 23.4382 234.919 23.1257C234.94 21.2299 234.95 20.282 234.95 20.282L235.294 20.0945C235.898 19.782 236.492 19.6257 237.075 19.6257C237.325 19.6257 237.544 19.7091 237.731 19.8757C239.148 21.1049 240.231 21.8445 240.981 22.0945C241.377 22.2611 241.679 22.4382 241.888 22.6257C242.117 22.7924 242.263 23.0528 242.325 23.407V23.532C242.325 23.9278 242.106 24.3549 241.669 24.8132C241.252 25.2716 240.721 25.7507 240.075 26.2507C239.179 26.9591 238.409 27.7195 237.763 28.532C237.367 29.0945 236.804 29.8757 236.075 30.8757C235.367 31.8757 234.638 32.907 233.888 33.9695C233.138 35.032 232.502 35.9382 231.981 36.6882L231.169 37.8132L239.231 35.282C239.106 35.157 238.971 35.032 238.825 34.907C237.763 34.0736 237.023 33.4382 236.606 33.0007L235.95 32.3757C236.304 32.3341 236.7 32.3132 237.138 32.3132C237.742 32.3132 238.575 32.3757 239.638 32.5007C240.7 32.6049 241.836 32.782 243.044 33.032C243.69 33.157 244.221 33.282 244.638 33.407C244.471 32.6986 244.315 31.9174 244.169 31.0632C244.002 30.1674 243.877 29.3757 243.794 28.6882L243.669 27.6882L244.106 27.8757C244.377 28.0007 244.721 28.1257 245.138 28.2507C245.888 28.5007 246.492 28.6257 246.95 28.6257C247.221 28.6257 247.481 28.5945 247.731 28.532C248.19 28.4278 248.846 28.282 249.7 28.0945C252.825 23.2403 254.409 20.3445 254.45 19.407C254.429 18.9695 254.377 18.5111 254.294 18.032C252.419 18.5736 250.784 19.2091 249.388 19.9382C248.867 20.1882 248.336 20.3132 247.794 20.3132C247.481 20.3132 247.023 20.2507 246.419 20.1257C245.836 19.9799 245.159 19.6882 244.388 19.2507C243.617 18.8132 242.992 18.3966 242.513 18.0007L241.763 17.407L244.388 17.2195C246.117 17.0945 248.336 16.8653 251.044 16.532C251.961 16.4278 252.888 16.3028 253.825 16.157L253.763 15.8757L254.606 16.032C256.252 15.782 257.94 15.4903 259.669 15.157C264.065 14.2611 267.19 13.5528 269.044 13.032C270.919 12.5111 272.117 12.0736 272.638 11.7195C272.888 11.5945 273.19 11.532 273.544 11.532C273.794 11.532 274.169 11.5945 274.669 11.7195C275.169 11.8236 275.731 12.0216 276.356 12.3132C277.002 12.6049 277.44 12.8236 277.669 12.9695C277.981 13.2195 278.138 13.6674 278.138 14.3132C278.138 14.9382 277.95 15.4903 277.575 15.9695C277.367 16.1778 276.898 16.282 276.169 16.282C275.752 16.282 275.252 16.2507 274.669 16.1882C273.731 16.0632 272.492 16.0007 270.95 16.0007C269.388 16.0007 267.523 16.0632 265.356 16.1882C263.231 16.3549 261.263 16.5945 259.45 16.907C259.971 16.9695 260.409 17.0007 260.763 17.0007C261.2 17.0216 261.575 17.282 261.888 17.782C262.284 18.4695 262.481 19.1257 262.481 19.7507C262.481 20.0841 262.409 20.2924 262.263 20.3757C262.117 20.4382 261.929 20.5007 261.7 20.5632C259.804 20.8966 258.034 22.032 256.388 23.9695C255.304 25.3236 254.304 26.4486 253.388 27.3445C254.45 27.1361 255.648 26.8966 256.981 26.6257L263.356 25.3757C262.648 24.4174 262.023 23.5528 261.481 22.782L260.419 21.282L261.638 21.8445C262.45 22.2403 263.45 22.6049 264.638 22.9382C265.534 23.1882 266.45 23.3132 267.388 23.3132L268.419 23.282C269.065 23.282 269.648 23.5424 270.169 24.0632C270.711 24.5841 271.179 25.2716 271.575 26.1257C271.992 26.9799 272.325 27.8445 272.575 28.7195C272.846 29.5945 273.044 30.3341 273.169 30.9382L273.356 31.8445L272.138 31.9382C271.784 31.9382 271.304 31.907 270.7 31.8445C270.117 31.7611 269.44 31.5632 268.669 31.2507C267.919 30.9174 267.242 30.3966 266.638 29.6882C265.825 28.6882 264.94 27.532 263.981 26.2195C263.877 26.0736 263.773 25.9278 263.669 25.782C262.252 26.6153 259.971 28.0424 256.825 30.0632C256.388 30.3549 255.971 30.6257 255.575 30.8757C256.034 31.2091 256.544 31.6257 257.106 32.1257C258.481 33.3549 259.169 34.4174 259.169 35.3132C259.169 35.4382 259.159 35.5528 259.138 35.657L258.95 36.4695C258.825 37.6361 258.284 39.2091 257.325 41.1882C256.367 43.1466 254.325 45.5424 251.2 48.3757C249.367 49.9591 247.586 51.1257 245.856 51.8757C243.273 53.0216 240.794 53.5945 238.419 53.5945L236.544 53.4695L237.419 53.3132C237.981 53.2091 238.794 52.8757 239.856 52.3132C242.481 50.9382 245.388 48.2195 248.575 44.157C252.534 39.0111 254.513 35.6674 254.513 34.1257C254.513 34.1049 254.502 34.0111 254.481 33.8445C254.461 33.657 254.367 33.3966 254.2 33.0632C254.138 32.8757 254.106 32.6674 254.106 32.4382C254.106 32.2716 254.127 32.0632 254.169 31.8132C251.106 33.8549 249.44 35.1049 249.169 35.5632C249.023 35.8966 248.731 36.0632 248.294 36.0632H247.856C247.606 36.0632 247.211 35.9486 246.669 35.7195C246.294 35.5736 245.971 35.4174 245.7 35.2507C245.659 35.3966 245.617 35.5632 245.575 35.7507C245.367 36.3757 244.95 37.0632 244.325 37.8132C243.784 38.4591 243.221 38.782 242.638 38.782ZM275.419 55.407C275.19 55.407 274.242 55.3861 272.575 55.3445C270.929 55.3028 268.981 54.8236 266.731 53.907C263.377 52.3445 261.7 50.0111 261.7 46.907L261.763 45.5632C261.763 43.9174 261.606 40.9799 261.294 36.7507C260.898 31.6257 260.669 28.8966 260.606 28.5632L261.294 29.157C263.836 31.3445 265.659 32.657 266.763 33.0945C267.534 33.407 267.919 33.8028 267.919 34.282C267.919 34.782 267.627 35.4486 267.044 36.282C266.752 36.8236 266.534 38.1153 266.388 40.157C266.325 40.9695 266.294 41.782 266.294 42.5945C266.294 43.8028 266.388 45.2195 266.575 46.8445C266.763 48.4486 267.294 49.5007 268.169 50.0007C269.69 50.5841 271.294 50.8757 272.981 50.8757C274.294 50.8757 275.315 50.782 276.044 50.5945C277.252 50.2611 278.075 49.4486 278.513 48.157C278.95 46.8861 279.169 45.2507 279.169 43.2507V42.9695L279.763 43.782C280.138 44.3445 280.617 45.0111 281.2 45.782C281.784 46.5528 282.367 47.2924 282.95 48.0007C283.534 48.6882 284.044 49.2091 284.481 49.5632C284.919 49.9382 285.138 50.3236 285.138 50.7195C285.138 50.9903 284.961 51.3757 284.606 51.8757C284.273 52.3966 283.346 53.1361 281.825 54.0945C280.284 54.9695 278.148 55.407 275.419 55.407ZM243.075 46.1257H242.888C242.429 46.0216 242.086 45.8341 241.856 45.5632C241.627 45.2924 241.419 44.9799 241.231 44.6257C240.94 43.9799 240.367 43.2924 239.513 42.5632C238.513 41.7924 237.825 41.2091 237.45 40.8132L236.856 40.2195C237.211 40.1778 237.606 40.157 238.044 40.157C238.586 40.157 239.336 40.2091 240.294 40.3132C241.252 40.3966 242.294 40.5632 243.419 40.8132C244.544 41.0424 245.315 41.2507 245.731 41.4382C245.94 41.5841 246.044 41.8132 246.044 42.1257C246.044 42.3757 245.95 42.782 245.763 43.3445C245.575 43.907 245.19 44.532 244.606 45.2195C244.106 45.8236 243.596 46.1257 243.075 46.1257ZM237.138 49.782C236.429 49.782 235.773 49.5632 235.169 49.1257C234.565 48.7091 234.211 47.9382 234.106 46.8132V46.5632C234.106 45.8757 234.179 45.1361 234.325 44.3445C234.471 43.5528 234.638 42.8549 234.825 42.2507L235.106 41.3445L235.575 42.1882C235.867 42.7507 236.273 43.4174 236.794 44.1882C237.315 44.9591 237.919 45.6882 238.606 46.3757C239.419 47.2091 239.825 47.8757 239.825 48.3757C239.825 48.4799 239.763 48.6882 239.638 49.0007C239.513 49.3341 238.929 49.5736 237.888 49.7195C237.617 49.7611 237.367 49.782 237.138 49.782ZM226.325 55.157C226.075 55.157 225.846 55.0632 225.638 54.8757C225.409 54.6049 225.179 54.1153 224.95 53.407C224.617 52.5111 224.45 51.6986 224.45 50.9695C224.45 50.4695 224.565 50.1049 224.794 49.8757L225.325 49.5007C227.242 48.0632 228.461 46.9695 228.981 46.2195L230.356 43.8757V44.8132C230.356 48.3549 230.179 50.6153 229.825 51.5945C229.7 51.9695 229.377 52.4903 228.856 53.157C228.356 53.8236 227.804 54.3757 227.2 54.8132C226.888 55.0424 226.596 55.157 226.325 55.157Z" fill="#7A6A56"/>
<path d="M177.456 58.9382L177.144 58.907C176.727 58.782 176.06 58.2507 175.144 57.3132C174.248 56.3966 173.3 55.3549 172.3 54.1882C171.3 53.0216 170.446 51.9799 169.737 51.0632L168.644 49.7195L169.737 49.9382C171.591 50.3132 173.164 50.5007 174.456 50.5007C174.56 50.5007 174.821 50.4903 175.237 50.4695C175.675 50.4486 175.956 50.2716 176.081 49.9382C176.269 49.2716 176.362 47.7716 176.362 45.4382C176.362 41.7299 176.05 39.4799 175.425 38.6882C175.3 38.5632 175.206 38.4278 175.144 38.282C174.914 38.4486 174.696 38.6153 174.487 38.782C173.133 39.8028 172.341 40.5945 172.112 41.157C172.008 41.3861 171.831 41.5007 171.581 41.5007C171.394 41.5007 171.071 41.3966 170.612 41.1882C170.154 40.9591 169.508 40.5007 168.675 39.8132C167.841 39.1049 167.06 38.3549 166.331 37.5632C165.623 36.7716 165.123 36.0841 164.831 35.5007C164.727 35.2716 164.675 35.0945 164.675 34.9695C164.675 34.7403 164.81 34.6049 165.081 34.5632C166.289 34.5007 167.55 34.2299 168.862 33.7507C170.175 33.2507 171.258 32.5424 172.112 31.6257C172.3 31.3966 172.56 31.1049 172.894 30.7507C175.977 27.5007 178.133 24.7403 179.362 22.4695L178.737 22.8132C177.196 23.6257 175.435 24.5945 173.456 25.7195C171.477 26.8445 169.696 27.9278 168.112 28.9695C166.55 29.9903 165.664 30.7611 165.456 31.282C165.373 31.4903 165.216 31.5945 164.987 31.5945C164.446 31.5945 163.571 31.0736 162.362 30.032C161.591 29.407 160.894 28.7403 160.269 28.032C159.248 26.907 158.737 26.1257 158.737 25.6882C158.737 25.4799 158.862 25.3549 159.112 25.3132C160.237 25.2716 161.487 25.0528 162.862 24.657C164.258 24.2611 165.352 23.657 166.144 22.8445L166.8 22.1257C167.279 21.6466 167.737 21.1153 168.175 20.532C168.633 19.9486 169.008 19.2716 169.3 18.5007C169.612 17.7091 169.769 16.7507 169.769 15.6257C169.769 15.2091 169.675 14.7507 169.487 14.2507C169.3 13.7299 169.091 13.2403 168.862 12.782C168.758 12.6153 168.675 12.4486 168.612 12.282C168.237 12.2611 167.821 12.2403 167.362 12.2195C166.112 12.1361 164.81 11.9799 163.456 11.7507L161.425 11.407C163.779 11.1986 165.966 10.6361 167.987 9.71948C170.029 8.78198 171.831 7.75073 173.394 6.62573C174.956 5.4799 176.227 4.50073 177.206 3.68823C178.081 2.9174 178.644 2.50073 178.894 2.43823C179.144 2.3549 179.456 2.31323 179.831 2.31323C180.206 2.31323 180.8 2.3549 181.612 2.43823C182.425 2.52157 183.3 2.74032 184.237 3.09448C185.196 3.44865 185.675 3.95907 185.675 4.62573C185.55 5.33407 184.8 6.2299 183.425 7.31323C182.05 8.37573 180.435 9.37573 178.581 10.3132C177.289 10.9591 176.06 11.4486 174.894 11.782C174.894 11.782 174.904 11.782 174.925 11.782C175.529 12.2403 176.175 12.8653 176.862 13.657C177.696 14.6153 178.112 15.2924 178.112 15.6882C178.112 16.0424 177.883 16.4382 177.425 16.8757C176.987 17.2924 176.425 17.7507 175.737 18.2507C174.737 18.9174 173.894 19.6257 173.206 20.3757C172.623 21.0632 171.914 21.7507 171.081 22.4382C170.248 23.1257 169.498 23.7091 168.831 24.1882L167.8 24.907L179.644 21.9382C180.269 20.6674 180.581 19.5632 180.581 18.6257C180.581 16.7091 180.56 15.7507 180.519 15.7507L180.925 15.5632C181.779 15.1882 182.508 15.0007 183.112 15.0007C183.446 15.0007 183.727 15.0736 183.956 15.2195C185.769 16.3861 187.154 17.0736 188.112 17.282C188.591 17.4278 188.966 17.5841 189.237 17.7507C189.529 17.9174 189.727 18.1778 189.831 18.532L189.862 18.7195C189.862 19.0945 189.612 19.5216 189.112 20.0007C188.612 20.4591 187.977 20.9591 187.206 21.5007C186.102 22.2507 185.164 23.0424 184.394 23.8757C183.685 24.7716 181.81 26.7403 178.769 29.782L174.487 34.032L184.612 31.8757C184.487 31.6882 184.362 31.5111 184.237 31.3445C183.279 30.1778 182.633 29.3341 182.3 28.8132L181.769 28.032H181.987C182.841 28.032 183.977 28.282 185.394 28.782C186.81 29.282 188.206 29.9174 189.581 30.6882C191.644 31.8757 192.675 32.8132 192.675 33.5007C192.675 33.8966 192.477 34.4486 192.081 35.157C191.706 35.8653 191.123 36.5528 190.331 37.2195C189.748 37.7195 189.196 37.9695 188.675 37.9695C188.487 37.9695 188.31 37.9382 188.144 37.8757C187.623 37.6257 187.216 37.2507 186.925 36.7507C186.654 36.2299 186.394 35.6257 186.144 34.9382C185.852 34.0216 185.394 33.0736 184.769 32.0945L183.519 32.8445C182.227 33.6153 180.737 34.5424 179.05 35.6257C178.508 35.9591 177.987 36.2924 177.487 36.6257C177.966 36.8341 178.519 37.0736 179.144 37.3445C179.852 37.6778 180.466 38.0007 180.987 38.3132C181.529 38.6049 181.8 38.8341 181.8 39.0007V39.782C181.8 40.9278 181.831 43.1778 181.894 46.532C181.998 51.1153 182.133 54.032 182.3 55.282C181.946 56.282 181.216 57.157 180.112 57.907C179.133 58.5945 178.248 58.9382 177.456 58.9382ZM162.612 55.3445C162.55 55.3445 162.487 55.3132 162.425 55.2507L161.862 54.4382C161.466 53.9174 161.039 53.3028 160.581 52.5945C159.581 51.1361 159.081 50.1361 159.081 49.5945C159.081 49.4695 159.102 49.3653 159.144 49.282L159.612 48.5632C161.321 46.0216 162.31 44.1778 162.581 43.032L163.237 39.6257L163.644 40.7507C163.914 41.5007 164.216 42.4174 164.55 43.5007C164.883 44.5841 165.185 45.657 165.456 46.7195C165.727 47.7611 165.862 48.5945 165.862 49.2195C165.862 50.032 165.612 50.9591 165.112 52.0007C164.612 53.0632 164.091 53.9278 163.55 54.5945C163.154 55.0945 162.841 55.3445 162.612 55.3445ZM196.394 52.1257C195.977 52.1257 195.446 51.9591 194.8 51.6257C194.154 51.3132 193.519 50.8653 192.894 50.282C192.269 49.7195 191.894 49.1986 191.769 48.7195C191.664 48.3653 191.31 47.8341 190.706 47.1257C190.102 46.3966 189.425 45.6466 188.675 44.8757C187.925 44.0841 187.258 43.407 186.675 42.8445L185.8 42.0007L187.55 42.2507C188.716 42.4174 190.06 42.6361 191.581 42.907C193.123 43.157 194.508 43.4278 195.737 43.7195C196.987 44.0111 197.748 44.3028 198.019 44.5945C198.414 45.2195 198.612 46.0216 198.612 47.0007C198.612 47.0841 198.591 47.4278 198.55 48.032C198.529 48.6361 198.352 49.407 198.019 50.3445C197.602 51.532 197.06 52.1257 196.394 52.1257Z" fill="#7A6A56"/>
<path d="M84.3999 16.5945C84.2332 16.5945 83.8791 16.5632 83.3374 16.5007C82.8166 16.4382 82.1916 16.1361 81.4624 15.5945C80.7332 15.0528 80.1082 14.4486 79.5874 13.782C79.0666 13.0945 78.6707 12.5007 78.3999 12.0007L77.9937 11.2507L78.3374 11.4382C78.8374 11.7716 79.6707 11.9382 80.8374 11.9382C81.0666 11.9382 81.4624 11.9278 82.0249 11.907C82.6082 11.8653 83.577 11.6778 84.9312 11.3445C86.1812 11.0528 87.6707 10.5736 89.3999 9.90698C89.3791 9.86532 89.3687 9.83407 89.3687 9.81323C88.6603 8.77157 87.8478 7.87573 86.9312 7.12573C86.0145 6.37573 85.0249 6.00073 83.9624 6.00073H83.8687L84.0874 5.75073C84.5249 5.25073 85.0874 4.84448 85.7749 4.53198C86.3166 4.28198 86.9624 4.15698 87.7124 4.15698C88.5666 4.15698 89.7853 4.21948 91.3687 4.34448C92.3687 4.42782 93.1187 4.46948 93.6187 4.46948C93.952 4.46948 94.1812 4.44865 94.3062 4.40698C94.452 4.40698 94.5666 4.80282 94.6499 5.59448C94.7124 6.24032 94.7645 7.02157 94.8062 7.93823C95.7228 7.6674 96.5457 7.43823 97.2749 7.25073C99.2124 6.81323 100.639 6.58407 101.556 6.56323L105.712 6.03198C105.525 5.44865 105.244 5.01115 104.869 4.71948C104.556 4.46948 104.192 4.34448 103.775 4.34448C103.733 4.34448 103.65 4.3549 103.525 4.37573C103.421 4.37573 103.317 4.38615 103.212 4.40698L103.056 4.46948L103.65 3.87573C104.754 2.7299 105.723 1.81323 106.556 1.12573C107.139 0.667399 107.546 0.438232 107.775 0.438232C108.129 0.438232 108.681 0.677816 109.431 1.15698C110.181 1.61532 110.9 2.17782 111.587 2.84448C112.275 3.51115 112.65 4.08407 112.712 4.56323C112.712 4.7299 112.723 4.90698 112.744 5.09448C114.848 4.84448 116.369 4.69865 117.306 4.65698C118.285 4.67782 119.15 5.09448 119.9 5.90698C120.65 6.71948 121.223 7.6049 121.619 8.56323C121.869 9.2299 121.994 9.77157 121.994 10.1882C121.994 10.3757 121.973 10.532 121.931 10.657C121.889 10.7611 121.869 10.8653 121.869 10.9695C121.869 11.032 121.879 11.1049 121.9 11.1882C121.921 11.2716 121.952 11.3341 121.994 11.3757L122.056 11.4695H121.931C121.473 11.282 119.869 10.8028 117.119 10.032C115.702 9.65698 114.223 9.30282 112.681 8.96948C112.535 10.2195 112.264 11.0424 111.869 11.4382C111.327 11.8757 108.952 13.2091 104.744 15.4382L100.744 17.532C100.577 17.8236 99.0353 18.7611 96.1187 20.3445L95.1499 20.8445C95.6291 20.8861 96.2541 21.0632 97.0249 21.3757C97.5874 21.6257 97.9416 21.8549 98.0874 22.0632C98.1707 22.2716 98.2437 23.2299 98.3062 24.9382C98.327 24.9382 98.3478 24.9278 98.3687 24.907C99.1187 24.5736 99.7957 24.2611 100.4 23.9695C100.837 23.7611 101.129 23.6257 101.275 23.5632C101.442 23.5007 101.608 23.4695 101.775 23.4695C102.025 23.4695 102.358 23.5424 102.775 23.6882C103.025 23.7924 103.275 23.9382 103.525 24.1257C103.483 22.6049 103.421 21.6153 103.337 21.157C103.254 20.782 102.91 20.5945 102.306 20.5945C101.577 20.5945 100.754 20.7716 99.8374 21.1257C99.6082 21.1882 99.3687 21.2195 99.1187 21.2195C98.3478 21.2195 97.4624 21.0007 96.4624 20.5632L96.0562 20.407L96.6499 20.2507C97.0249 20.1466 97.4937 20.0007 98.0562 19.8132C98.6395 19.6257 99.2228 19.4174 99.8062 19.1882C100.389 18.9382 100.9 18.6778 101.337 18.407C101.858 18.0736 102.296 17.8549 102.65 17.7507C102.858 17.6882 103.087 17.657 103.337 17.657C103.796 17.657 104.754 17.8757 106.212 18.3132C107.692 18.7299 108.629 19.1674 109.025 19.6257C109.233 19.8549 109.337 20.0945 109.337 20.3445C109.337 20.5945 109.244 20.8445 109.056 21.0945C108.91 21.407 108.796 22.0424 108.712 23.0007C108.837 22.9591 108.962 22.9174 109.087 22.8757C110.025 22.5841 110.764 22.1361 111.306 21.532C111.431 21.3445 111.577 21.1674 111.744 21.0007C112.223 20.4799 112.66 19.8445 113.056 19.0945C113.473 18.3445 113.681 17.3653 113.681 16.157C113.681 15.8445 113.608 15.5007 113.462 15.1257C113.337 14.7507 113.192 14.3966 113.025 14.0632C112.858 13.7299 112.712 13.4591 112.587 13.2507L112.369 12.9382L112.869 13.0007C113.473 13.1049 114.129 13.157 114.837 13.157C115.421 13.157 115.806 13.0632 115.994 12.8757C116.056 12.8132 116.129 12.782 116.212 12.782C116.421 12.782 116.733 12.9486 117.15 13.282C117.587 13.6153 118.046 14.0632 118.525 14.6257C119.108 15.3132 119.4 15.8132 119.4 16.1257C119.4 16.3966 119.254 16.6882 118.962 17.0007C118.671 17.3132 118.285 17.6466 117.806 18.0007C117.139 18.5216 116.587 19.0528 116.15 19.5945C115.733 20.1361 115.244 20.6674 114.681 21.1882C114.119 21.6882 113.608 22.1153 113.15 22.4695L112.462 23.032L118.119 21.407L117.869 19.407L118.119 19.2507C118.702 18.8966 119.202 18.7195 119.619 18.7195C119.785 18.7195 119.931 18.7611 120.056 18.8445C121.306 19.5736 122.244 19.9903 122.869 20.0945C123.181 20.1778 123.442 20.2716 123.65 20.3757C123.942 20.5424 124.087 20.7716 124.087 21.0632C124.087 21.4799 123.587 22.1361 122.587 23.032C121.921 23.5945 121.379 24.1882 120.962 24.8132C120.608 25.3757 119.921 26.3132 118.9 27.6257C119.275 27.7091 119.671 27.8236 120.087 27.9695C121.212 28.3861 122.348 28.9278 123.494 29.5945C125.223 30.6153 126.087 31.4278 126.087 32.032C126.087 32.3653 125.931 32.8549 125.619 33.5007C125.327 34.1257 124.869 34.7299 124.244 35.3132C123.744 35.7716 123.275 36.0007 122.837 36.0007C122.692 36.0007 122.556 35.9799 122.431 35.9382C122.014 35.7299 121.681 35.407 121.431 34.9695C121.181 34.5111 120.952 33.9799 120.744 33.3757C120.577 32.8341 120.348 32.2924 120.056 31.7507C119.535 32.1674 118.973 32.6153 118.369 33.0945C117.348 33.9278 116.442 34.7195 115.65 35.4695C114.962 36.1361 114.525 36.657 114.337 37.032C114.754 36.8861 115.317 36.7716 116.025 36.6882C117.233 36.5424 118.504 36.4591 119.837 36.4382C121.171 36.4382 122.212 36.5111 122.962 36.657C123.733 36.782 124.233 37.0841 124.462 37.5632C124.712 38.0216 124.837 38.5111 124.837 39.032C124.837 39.532 124.785 39.9382 124.681 40.2507C124.598 40.5632 124.067 40.7299 123.087 40.7507H122.462C121.567 40.7507 120.452 40.7195 119.119 40.657C117.244 40.532 115.129 40.4695 112.775 40.4695C110.567 40.4695 108.306 40.7195 105.994 41.2195C105.598 41.3028 105.212 41.3861 104.837 41.4695C104.921 41.6361 104.962 41.8028 104.962 41.9695C104.962 42.0111 104.952 42.0736 104.931 42.157C105.285 42.3236 105.775 42.6674 106.4 43.1882C107.275 43.8966 108.639 44.7924 110.494 45.8757C111.848 46.6049 113.577 47.3341 115.681 48.0632C117.806 48.7924 119.942 49.4591 122.087 50.0632C124.254 50.6674 126.087 51.157 127.587 51.532L129.806 52.0945L127.775 52.5945C125.337 53.1778 123.025 53.8549 120.837 54.6257C119.504 55.1466 118.4 55.407 117.525 55.407C117.421 55.407 117.108 55.3861 116.587 55.3445C116.087 55.3236 115.254 54.6257 114.087 53.2507C113.108 52.1257 111.983 50.9278 110.712 49.657C109.462 48.3861 108.275 47.3028 107.15 46.407C106.046 45.4903 105.233 45.032 104.712 45.032H104.65C104.546 45.032 104.442 45.0216 104.337 45.0007C104.275 45.8132 104.244 46.6361 104.244 47.4695C104.244 48.8445 104.317 50.2403 104.462 51.657C104.817 54.4695 105.223 56.2195 105.681 56.907C105.723 57.0111 105.744 57.0841 105.744 57.1257V57.157C105.744 57.2403 105.681 57.3445 105.556 57.4695C105.119 57.907 104.639 58.3341 104.119 58.7507C103.035 59.6049 102.264 60.032 101.806 60.032C101.514 60.032 101.317 59.8861 101.212 59.5945C101.129 59.3028 100.942 58.9799 100.65 58.6257C100.379 58.2716 100.067 57.9174 99.7124 57.5632C99.1707 57.0424 98.7645 56.5528 98.4937 56.0945C98.3687 55.907 98.3062 55.7403 98.3062 55.5945C98.3062 55.3653 98.4312 55.1778 98.6812 55.032C99.4937 54.6153 100.139 54.157 100.619 53.657C101.035 53.2403 101.244 52.8653 101.244 52.532C101.244 52.4903 101.233 52.4278 101.212 52.3445C101.192 52.2611 101.098 50.2611 100.931 46.3445C100.035 47.1778 99.0562 48.0528 97.9937 48.9695C96.0978 50.5945 94.3062 52.0736 92.6187 53.407C90.952 54.7403 89.7645 55.5945 89.0562 55.9695C88.3478 56.3445 87.4728 56.5945 86.4312 56.7195C85.3895 56.8653 84.3478 56.9382 83.3062 56.9382H82.3062C81.6603 56.9382 81.0457 56.9278 80.4624 56.907L79.5562 56.8445L81.2437 56.2507C82.3478 55.8757 83.9207 55.0945 85.9624 53.907C88.0249 52.7403 90.4937 51.0111 93.3687 48.7195C94.7853 47.5736 95.9937 46.5528 96.9937 45.657C97.9937 44.7403 98.827 43.9486 99.4937 43.282C99.5978 43.1778 99.6916 43.0736 99.7749 42.9695C99.6082 43.032 99.4416 43.0841 99.2749 43.1257C97.1082 43.9174 95.1291 44.7507 93.3374 45.6257C92.2541 46.1049 91.1187 46.3445 89.9312 46.3445C89.6395 46.3445 89.0457 46.3132 88.1499 46.2507C87.2541 46.1674 86.1395 45.8861 84.8062 45.407C83.4937 44.907 82.4207 44.4174 81.5874 43.9382L80.3062 43.2195L81.9624 43.0945C85.0874 42.8653 88.1395 42.4799 91.1187 41.9382C93.5978 41.5216 96.7228 40.9695 100.494 40.282C100.348 39.2195 100.181 38.5111 99.9937 38.157C99.6603 37.657 99.3687 37.1674 99.1187 36.6882L98.2437 35.0632L99.3062 35.282C100.014 35.4486 100.817 35.6466 101.712 35.8757C102.629 36.1049 103.442 36.3549 104.15 36.6257C104.858 36.8966 105.212 37.1466 105.212 37.3757C105.212 37.5632 105.15 38.032 105.025 38.782C104.983 38.9903 104.952 39.2195 104.931 39.4695C109.973 38.532 112.858 37.8549 113.587 37.4382C113.192 37.2924 112.66 36.9591 111.994 36.4382C111.389 36.0007 110.837 35.5216 110.337 35.0007C109.483 34.1674 109.056 33.5945 109.056 33.282C109.056 33.157 109.129 33.0736 109.275 33.032C110.067 32.9278 110.858 32.6778 111.65 32.282C112.462 31.8861 113.108 31.3549 113.587 30.6882L114.056 30.032C116.369 26.9695 117.692 24.4486 118.025 22.4695C117.504 22.8028 116.952 23.157 116.369 23.532C115.014 24.3861 113.806 25.2091 112.744 26.0007C111.681 26.7716 111.077 27.3549 110.931 27.7507C110.869 27.8966 110.764 27.9695 110.619 27.9695C110.244 27.9695 109.639 27.6049 108.806 26.8757C108.764 26.8341 108.712 26.7924 108.65 26.7507C108.671 27.3966 108.702 28.1153 108.744 28.907C108.785 30.1153 108.848 31.0007 108.931 31.5632C108.973 31.8966 108.994 32.2299 108.994 32.5632C108.994 33.7716 108.764 35.0111 108.306 36.282C108.098 36.8236 107.775 37.2611 107.337 37.5945C106.817 38.032 106.348 38.2507 105.931 38.2507C105.681 38.2507 105.546 38.1257 105.525 37.8757C105.504 37.6257 105.264 37.1466 104.806 36.4382C104.369 35.7299 103.869 34.9695 103.306 34.157C102.952 33.6986 102.629 33.2611 102.337 32.8445C101.983 32.907 101.608 32.9799 101.212 33.0632C100.067 33.3132 99.2437 33.5216 98.7437 33.6882C98.6395 33.7299 98.5353 33.7507 98.4312 33.7507C98.3895 33.9382 98.327 34.1153 98.2437 34.282C98.0562 34.7195 97.8374 35.0528 97.5874 35.282C97.4416 35.4278 97.3166 35.5007 97.2124 35.5007C97.1291 35.5007 97.0249 35.4278 96.8999 35.282C96.9207 35.3653 96.9312 35.4486 96.9312 35.532C96.9312 35.8653 96.7749 36.3549 96.4624 37.0007C96.1499 37.6257 95.6707 38.2403 95.0249 38.8445C94.5457 39.3028 94.0874 39.532 93.6499 39.532C93.5041 39.532 93.3582 39.5007 93.2124 39.4382C92.7957 39.2299 92.4624 38.907 92.2124 38.4695C91.9624 38.0111 91.7228 37.4799 91.4937 36.8757C91.4312 36.6882 91.3687 36.4903 91.3062 36.282C90.7228 36.7403 90.0978 37.2507 89.4312 37.8132C88.4103 38.6674 87.4937 39.4903 86.6812 40.282C85.8895 41.0736 85.4416 41.6778 85.3374 42.0945C85.2957 42.2611 85.1812 42.3445 84.9937 42.3445C84.5978 42.3445 83.9207 42.0007 82.9624 41.3132C82.3582 40.8757 81.7957 40.3966 81.2749 39.8757C80.3791 39.0424 79.9312 38.4486 79.9312 38.0945C79.9312 37.9695 80.0041 37.8861 80.1499 37.8445C80.9624 37.7403 81.7749 37.4799 82.5874 37.0632C83.3999 36.6466 84.0457 36.0945 84.5249 35.407C86.4207 32.8861 87.7124 30.7195 88.3999 28.907C87.0666 29.7611 85.8582 30.5841 84.7749 31.3757C83.5874 32.2507 82.9103 32.8966 82.7437 33.3132C82.6812 33.5007 82.5666 33.5945 82.3999 33.5945C81.9624 33.5945 81.2957 33.1778 80.3999 32.3445C79.0041 31.1361 78.1082 30.1049 77.7124 29.2507C77.6291 29.0841 77.5874 28.9382 77.5874 28.8132C77.5874 28.6674 77.6707 28.5841 77.8374 28.5632C78.6916 28.5007 79.6395 28.3028 80.6812 27.9695C81.7437 27.6361 82.5666 27.1257 83.1499 26.4382L83.6499 25.8445C84.1916 25.2611 84.6812 24.5632 85.1187 23.7507C85.577 22.9382 85.8062 21.8549 85.8062 20.5007C85.8062 19.8757 85.5666 19.1049 85.0874 18.1882L84.3374 16.9382L84.8999 17.0007C85.6916 17.1257 86.3374 17.1882 86.8374 17.1882C87.0666 17.1882 87.3374 17.1778 87.6499 17.157C87.9624 17.1361 88.202 17.032 88.3687 16.8445C88.4312 16.782 88.5145 16.7507 88.6187 16.7507C88.827 16.7507 89.1707 16.9382 89.6499 17.3132C90.1291 17.6674 90.6395 18.157 91.1812 18.782C91.8062 19.5736 92.1187 20.1466 92.1187 20.5007C92.1187 20.7716 91.952 21.0841 91.6187 21.4382C91.3062 21.7716 90.8895 22.1466 90.3687 22.5632C89.9728 22.8549 89.6187 23.157 89.3062 23.4695C89.3895 23.4278 89.4832 23.3861 89.5874 23.3445C89.9416 23.1778 90.2541 23.0945 90.5249 23.0945C90.6916 23.0945 90.8374 23.1361 90.9624 23.2195C92.2541 23.9278 93.2228 24.3341 93.8687 24.4382C93.9312 24.4591 93.9937 24.4799 94.0562 24.5007C93.9728 24.0632 93.8791 23.657 93.7749 23.282C93.6916 23.0111 93.6187 22.7716 93.5562 22.5632C93.4937 22.3549 93.4416 22.1778 93.3999 22.032C93.3582 21.9486 93.327 21.8757 93.3062 21.8132L91.5562 22.7507L92.1812 21.9382C92.577 21.4174 93.0353 20.7924 93.5562 20.0632C94.077 19.3132 94.5249 18.6153 94.8999 17.9695C95.2957 17.3028 95.5041 16.8132 95.5249 16.5007C95.5041 16.1049 95.4416 15.7195 95.3374 15.3445C95.2124 14.9695 95.0874 14.6674 94.9624 14.4382C94.9832 14.8341 94.9937 15.1882 94.9937 15.5007V16.782L94.2437 16.282C93.7228 15.9486 93.1603 15.4695 92.5562 14.8445C92.0145 14.3236 91.5562 13.7195 91.1812 13.032C89.7645 14.032 88.3374 14.9695 86.8999 15.8445C86.0041 16.3445 85.1707 16.5945 84.3999 16.5945ZM101.556 6.93823C100.119 7.43823 98.7124 8.09448 97.3374 8.90698C96.5041 9.40698 95.6916 9.92782 94.8999 10.4695C94.8999 11.0945 94.9103 11.7195 94.9312 12.3445C94.952 12.9903 94.9624 13.5736 94.9624 14.0945L95.1187 14.1257C95.3478 14.1674 95.6395 14.1882 95.9937 14.1882C96.8687 14.1882 97.577 13.9695 98.1187 13.532C98.6187 13.8445 99.0666 14.282 99.4624 14.8445C99.8582 15.3861 100.171 15.907 100.4 16.407C100.4 16.4278 100.41 16.4486 100.431 16.4695C101.035 15.7195 101.702 14.8757 102.431 13.9382C103.452 12.6049 104.317 11.282 105.025 9.96948C105.504 9.07365 105.796 8.2924 105.9 7.62573C104.962 7.45907 104.004 7.30282 103.025 7.15698L101.556 6.93823ZM84.4624 28.1257L88.9624 26.8132C89.0041 26.5424 89.0249 26.282 89.0249 26.032V25.782L88.7749 24.0007C88.6707 24.1257 88.577 24.2403 88.4937 24.3445C88.0562 24.907 87.5249 25.4799 86.8999 26.0632C86.2749 26.6257 85.7124 27.1049 85.2124 27.5007L84.4624 28.1257ZM98.6499 27.1882C98.5666 27.1882 98.4728 27.1778 98.3687 27.157C98.4103 28.2611 98.4416 29.532 98.4624 30.9695C99.1707 30.8028 100.004 30.5841 100.962 30.3132C102.171 30.0007 103.046 29.7924 103.587 29.6882C103.608 29.1466 103.619 28.4591 103.619 27.6257L103.587 26.4695C103.504 26.4903 103.41 26.5111 103.306 26.532C102.494 26.7195 101.629 26.8549 100.712 26.9382C100.087 27.0007 99.577 27.0632 99.1812 27.1257C99.0145 27.1674 98.8374 27.1882 98.6499 27.1882ZM90.5874 31.3132C90.6499 31.3341 90.7228 31.3549 90.8062 31.3757C91.9728 31.8132 93.1395 32.3653 94.3062 33.032C95.1395 33.5111 95.7749 33.9486 96.2124 34.3445C95.9207 33.9278 95.6707 33.4695 95.4624 32.9695C95.2124 32.4486 95.0874 32.0007 95.0874 31.6257V31.3132C95.0874 30.8757 95.0249 30.157 94.8999 29.157C94.7541 28.2195 94.6187 27.3549 94.4937 26.5632C94.2645 26.8341 93.9728 27.1257 93.6187 27.4382C92.952 28.0424 92.3999 28.657 91.9624 29.282C91.6707 29.7611 91.2124 30.4382 90.5874 31.3132ZM115.306 32.2195L119.587 30.9382C119.442 30.7091 119.285 30.4799 119.119 30.2507C118.66 29.6674 118.285 29.1778 117.994 28.782L115.306 32.2195ZM86.3062 36.9382L90.9312 35.4695C90.6395 34.8861 90.2853 34.2924 89.8687 33.6882C89.6812 33.4382 89.5041 33.2091 89.3374 33.0007L86.3062 36.9382Z" fill="#7A6A56"/>
<path d="M29.375 27.8445H29.1875C28.4167 27.6778 27.6875 27.2091 27 26.4382C26.3125 25.6674 25.6146 24.7611 24.9062 23.7195C24.1979 22.657 23.4271 21.6674 22.5938 20.7507C21.7812 19.8341 20.875 19.2507 19.875 19.0007L20.9688 18.4695C21.6979 18.1153 22.625 17.7403 23.75 17.3445C24.8958 16.9486 26.0938 16.6466 27.3438 16.4382C27.8438 16.3549 28.3333 16.3132 28.8125 16.3132C29.5 16.3132 30.1667 16.3966 30.8125 16.5632C32.2917 17.0424 33.0312 18.4382 33.0312 20.7507C33.0312 21.4174 32.9167 22.2924 32.6875 23.3757C32.4792 24.4382 32.0521 25.4695 31.4062 26.4695C30.8021 27.3861 30.125 27.8445 29.375 27.8445ZM49.8438 30.3132C49.3646 30.3132 48.8958 30.157 48.4375 29.8445C47.9792 29.532 47.4792 29.0528 46.9375 28.407C46.25 27.5528 45.2812 26.6778 44.0312 25.782C42.8021 24.8653 40.9896 24.1986 38.5938 23.782L40.6875 23.3132C42.0833 23.0216 43.7188 22.7195 45.5938 22.407C48.0104 22.032 49.9271 21.8445 51.3438 21.8445C52.5938 21.8445 53.4375 22.0216 53.875 22.3757C54.3542 22.8966 54.5938 23.6049 54.5938 24.5007C54.5938 24.6674 54.5625 25.0736 54.5 25.7195C54.4583 26.3653 54.0833 27.2091 53.375 28.2507C52.6875 29.2716 51.7292 29.9382 50.5 30.2507C50.2708 30.2924 50.0521 30.3132 49.8438 30.3132ZM6.09375 41.5007C5.71875 41.5007 5.32292 41.4486 4.90625 41.3445C3.42708 40.8861 2.38542 40.2507 1.78125 39.4382C1.21875 38.7091 0.9375 38.032 0.9375 37.407C0.9375 37.3445 0.958333 37.1257 1 36.7507C1.04167 36.3757 1.35417 36.1257 1.9375 36.0007C2.39583 35.8757 2.94792 35.3028 3.59375 34.282C4.26042 33.2403 4.91667 32.0528 5.5625 30.7195C6.20833 29.3653 6.75 28.1674 7.1875 27.1257L7.84375 25.5945L8.4375 26.657C8.8125 27.3861 9.19792 28.3236 9.59375 29.4695C9.98958 30.5945 10.1875 31.7716 10.1875 33.0007C10.1875 34.2299 10.0521 35.5736 9.78125 37.032C9.51042 38.4903 8.98958 39.6674 8.21875 40.5632C7.67708 41.1882 6.96875 41.5007 6.09375 41.5007ZM32.8125 45.0632C32.0833 45.0632 30.8229 45.0216 29.0312 44.9382C27.2604 44.8549 25.3958 44.4382 23.4375 43.6882C21.0625 42.8132 19.1979 41.1882 17.8438 38.8132C16.4896 36.4382 15.6146 32.8341 15.2188 28.0007L15.9062 29.6882C16.3438 30.8132 17.1146 32.0945 18.2188 33.532C19.3229 34.9486 20.8229 36.1986 22.7188 37.282C24.6354 38.3445 27.0417 38.8861 29.9375 38.907C33.3125 38.8653 35.7083 38.7611 37.125 38.5945C38.2708 38.4695 38.9167 38.2716 39.0625 38.0007C39.125 37.8549 39.1562 37.6882 39.1562 37.5007V37.2195C39.1562 36.6778 38.8333 35.3861 38.1875 33.3445L37.125 30.157L38.25 30.9695C39 31.5111 39.8958 32.1049 40.9375 32.7507C43.1458 34.1674 44.6667 34.8757 45.5 34.8757C45.625 34.8757 45.7292 34.8653 45.8125 34.8445C45.8958 34.8236 45.9688 34.8132 46.0312 34.8132C46.4688 34.8132 46.6875 35.3549 46.6875 36.4382C46.6875 37.2507 46.5 38.2507 46.125 39.4382C45.75 40.6257 45.0833 41.6882 44.125 42.6257C43.0417 43.5216 41.2292 44.1778 38.6875 44.5945C36.8125 44.907 34.8542 45.0632 32.8125 45.0632Z" fill="#7A6A56"/>
</svg>
